<svg id="svg" version="1.1" xmlns="http://www.w3.org/2000/svg" xmlns:xlink="http://www.w3.org/1999/xlink" width="400" height="355.28942115768467" viewBox="0, 0, 400,355.28942115768467"><g id="svgg"><path id="path0" d="M199.644 61.377 C 195.734 61.648,189.254 63.461,186.133 65.157 C 185.742 65.370,184.462 66.061,183.289 66.694 C 180.635 68.125,175.647 70.978,174.933 71.473 C 174.385 71.853,169.812 74.498,167.289 75.895 C 166.507 76.328,165.307 77.027,164.622 77.449 C 163.938 77.871,162.978 78.416,162.489 78.659 C 162.000 78.902,160.320 79.856,158.756 80.778 C 157.191 81.700,155.191 82.870,154.311 83.377 C 153.431 83.884,151.366 85.092,149.721 86.061 C 148.076 87.030,146.661 87.822,146.576 87.822 C 145.848 87.822,139.687 92.479,137.410 94.750 C 133.586 98.565,129.542 104.847,128.309 108.890 C 126.157 115.941,126.172 115.668,126.304 145.244 C 126.423 171.943,126.444 172.688,127.185 175.289 C 128.526 179.998,131.283 186.214,132.711 187.747 C 133.053 188.114,133.333 188.500,133.333 188.603 C 133.333 189.298,140.118 196.122,142.266 197.588 C 143.619 198.511,145.497 199.621,148.094 201.033 C 148.488 201.247,149.288 201.748,149.872 202.146 C 150.456 202.544,151.413 203.099,152.000 203.378 C 152.587 203.657,153.467 204.148,153.956 204.470 C 154.444 204.791,155.604 205.477,156.533 205.994 C 157.462 206.510,158.982 207.360,159.911 207.881 C 160.840 208.402,162.160 209.138,162.844 209.516 C 163.529 209.895,164.598 210.588,165.221 211.058 C 165.843 211.527,166.492 211.911,166.662 211.911 C 166.833 211.911,167.702 212.374,168.594 212.940 C 169.486 213.506,170.958 214.386,171.864 214.895 C 174.211 216.216,176.689 217.606,178.133 218.411 C 178.818 218.793,179.778 219.388,180.267 219.734 C 181.854 220.857,189.744 224.711,190.455 224.711 C 190.836 224.711,191.299 224.848,191.484 225.016 C 191.670 225.184,192.862 225.517,194.133 225.756 C 195.404 225.995,197.212 226.338,198.151 226.517 C 201.650 227.188,207.024 226.809,212.800 225.484 C 214.794 225.026,216.707 224.286,219.378 222.938 C 222.620 221.301,229.448 217.487,231.822 215.988 C 232.507 215.555,234.827 214.195,236.978 212.964 C 241.766 210.225,246.931 207.247,249.778 205.584 C 250.951 204.898,252.951 203.752,254.222 203.037 C 255.493 202.322,257.210 201.306,258.037 200.780 C 258.865 200.253,259.667 199.822,259.820 199.822 C 260.335 199.822,263.980 197.243,266.228 195.289 C 272.797 189.578,277.392 181.331,279.069 172.245 C 279.730 168.666,279.613 119.005,278.935 115.378 C 276.934 104.662,270.989 95.582,262.152 89.747 C 260.549 88.688,259.134 87.822,259.007 87.822 C 258.880 87.822,258.347 87.517,257.823 87.143 C 257.298 86.769,256.153 86.076,255.279 85.603 C 254.404 85.129,253.049 84.372,252.267 83.921 C 251.484 83.469,250.124 82.696,249.244 82.202 C 248.364 81.708,247.164 81.015,246.578 80.661 C 245.991 80.307,244.791 79.612,243.911 79.117 C 243.031 78.621,242.071 78.064,241.778 77.878 C 240.437 77.029,234.546 73.600,234.428 73.600 C 234.356 73.600,233.700 73.227,232.971 72.771 C 232.241 72.315,230.764 71.454,229.689 70.857 C 228.613 70.260,226.293 68.929,224.533 67.899 C 219.897 65.185,215.901 63.289,214.817 63.289 C 214.470 63.289,214.035 63.153,213.849 62.986 C 212.839 62.080,203.978 61.076,199.644 61.377 M213.156 79.283 C 229.236 81.928,246.463 92.140,254.735 103.931 C 257.863 108.391,258.866 109.968,260.320 112.713 C 261.200 114.374,262.450 117.013,263.097 118.578 C 263.744 120.142,264.417 121.742,264.594 122.134 C 264.939 122.900,266.164 127.284,266.681 129.600 C 271.879 152.922,263.543 178.487,245.867 193.429 C 244.368 194.696,242.810 196.013,242.405 196.356 C 242.000 196.698,241.545 196.978,241.393 196.978 C 241.242 196.978,240.906 197.178,240.648 197.422 C 239.913 198.117,237.580 199.822,237.364 199.822 C 237.257 199.822,236.326 200.353,235.296 201.003 C 233.052 202.416,228.860 204.444,228.182 204.444 C 227.916 204.444,227.546 204.596,227.360 204.782 C 226.532 205.608,218.459 207.893,212.800 208.902 C 207.190 209.902,192.746 209.408,188.410 208.067 C 187.745 207.861,186.480 207.504,185.600 207.272 C 184.720 207.041,183.680 206.729,183.289 206.578 C 182.898 206.427,181.858 206.094,180.978 205.839 C 180.098 205.584,178.271 204.846,176.919 204.199 C 175.567 203.552,174.340 203.022,174.193 203.022 C 174.046 203.022,172.708 202.302,171.219 201.422 C 169.731 200.542,168.450 199.822,168.374 199.822 C 168.113 199.822,163.340 196.449,161.582 195.022 C 159.261 193.139,153.654 187.556,152.337 185.817 C 151.760 185.057,151.128 184.257,150.931 184.039 C 150.497 183.562,149.753 182.502,148.034 179.911 C 138.252 165.175,134.927 145.830,139.233 128.711 C 141.108 121.254,144.896 112.439,148.099 108.075 C 148.778 107.150,149.333 106.228,149.333 106.026 C 149.333 105.824,149.459 105.606,149.612 105.541 C 149.765 105.476,150.647 104.432,151.572 103.221 C 156.929 96.209,165.232 89.507,173.689 85.370 C 178.850 82.845,182.400 81.534,187.200 80.378 C 188.178 80.143,189.677 79.775,190.531 79.562 C 195.184 78.397,206.892 78.253,213.156 79.283 M195.378 80.387 C 194.400 80.556,192.480 80.876,191.111 81.099 C 188.634 81.502,183.221 82.938,181.867 83.553 C 181.476 83.730,180.362 84.133,179.393 84.447 C 177.569 85.039,170.849 88.459,169.190 89.640 C 168.670 90.009,168.155 90.311,168.044 90.311 C 166.037 90.311,152.733 103.401,149.793 108.267 C 147.695 111.740,145.422 115.620,145.422 115.729 C 145.422 115.802,144.956 116.873,144.385 118.109 C 139.384 128.944,137.553 145.202,140.087 156.267 C 141.866 164.029,142.934 167.136,145.823 172.939 C 154.203 189.772,171.376 203.086,189.156 206.533 C 190.231 206.741,191.991 207.116,193.067 207.365 C 195.621 207.957,210.373 207.987,212.622 207.405 C 213.502 207.177,215.182 206.803,216.356 206.573 C 229.514 203.997,244.238 194.957,252.267 184.524 C 253.049 183.508,253.854 182.494,254.056 182.271 C 258.060 177.859,263.371 166.286,265.175 158.044 C 267.769 146.191,266.948 132.402,263.079 122.844 C 262.921 122.453,262.546 121.375,262.246 120.448 C 259.533 112.074,249.946 99.192,242.434 93.829 C 241.231 92.970,239.730 91.827,239.098 91.289 C 238.467 90.751,237.855 90.311,237.738 90.311 C 237.621 90.311,236.682 89.780,235.651 89.132 C 224.732 82.259,206.921 78.391,195.378 80.387 M187.556 125.161 C 188.142 125.409,189.122 125.826,189.732 126.089 C 192.540 127.300,197.494 133.419,197.266 135.395 C 197.158 136.335,197.096 136.358,194.441 136.459 L 191.726 136.562 190.390 134.742 C 186.145 128.960,178.627 129.220,174.626 135.289 C 173.564 136.901,172.993 148.335,173.835 151.147 C 176.690 160.678,192.356 158.772,192.356 148.894 L 192.356 147.911 188.206 147.911 C 183.091 147.911,182.756 147.712,182.756 144.669 C 182.756 141.875,182.781 141.867,190.866 141.867 C 199.162 141.867,199.261 141.978,198.265 150.222 C 196.151 167.723,170.691 168.331,167.499 150.957 C 164.608 135.223,171.213 124.201,183.289 124.604 C 185.049 124.663,186.969 124.913,187.556 125.161 M216.818 125.582 C 217.126 125.890,217.244 128.363,217.244 134.471 C 217.244 143.494,217.245 143.500,218.938 142.608 C 219.908 142.097,223.646 140.444,223.830 140.444 C 223.922 140.444,225.160 139.907,226.582 139.250 C 228.004 138.593,229.565 137.935,230.051 137.786 C 232.071 137.168,232.178 136.844,232.178 131.352 C 232.178 124.832,232.019 125.156,235.226 125.156 C 238.829 125.156,238.578 123.725,238.578 144.215 C 238.578 164.751,238.870 163.200,235.005 163.200 C 231.974 163.200,232.178 163.920,232.178 153.215 C 232.178 143.427,232.283 143.819,229.920 144.839 C 227.685 145.803,224.114 147.302,221.156 148.517 C 216.921 150.256,217.244 149.586,217.244 156.628 C 217.244 163.612,217.445 163.200,214.041 163.200 C 210.596 163.200,210.844 164.694,210.844 143.992 C 210.844 127.139,210.887 125.877,211.467 125.540 C 212.339 125.032,216.299 125.063,216.818 125.582 M60.474 279.240 C 60.556 279.311,62.222 279.454,64.178 279.558 C 66.554 279.684,67.203 279.650,66.133 279.455 C 64.529 279.163,60.196 278.998,60.474 279.240 M240.970 279.368 C 241.601 279.446,242.721 279.448,243.459 279.371 C 244.196 279.294,243.680 279.229,242.311 279.228 C 240.942 279.226,240.339 279.289,240.970 279.368 M57.689 279.712 C 58.031 279.801,58.591 279.801,58.933 279.712 C 59.276 279.622,58.996 279.549,58.311 279.549 C 57.627 279.549,57.347 279.622,57.689 279.712 M91.467 279.702 C 91.222 279.801,91.022 280.048,91.022 280.251 C 91.022 280.499,91.174 280.495,91.484 280.237 C 91.739 280.026,93.299 279.799,94.951 279.732 L 97.956 279.611 94.933 279.567 C 93.271 279.543,91.711 279.604,91.467 279.702 M116.356 279.702 C 115.724 279.957,115.706 312.542,116.338 313.173 C 116.647 313.482,118.732 313.579,123.893 313.522 L 131.022 313.445 123.733 313.256 L 116.444 313.067 116.444 296.533 L 116.444 280.000 123.556 279.811 L 130.667 279.622 123.733 279.572 C 119.920 279.545,116.600 279.604,116.356 279.702 M148.430 279.911 C 148.336 280.156,148.301 287.796,148.352 296.889 L 148.444 313.422 158.712 313.517 C 170.436 313.624,169.956 313.743,169.956 310.750 C 169.956 308.148,170.339 308.267,161.926 308.267 L 155.022 308.267 155.022 303.644 L 155.022 299.022 160.444 299.017 C 163.427 299.014,166.075 298.879,166.331 298.717 C 167.009 298.287,166.762 294.328,166.044 294.134 C 165.629 294.022,165.614 294.063,165.976 294.318 C 166.287 294.537,166.405 295.281,166.332 296.567 L 166.222 298.489 160.533 298.667 L 154.844 298.844 154.844 303.644 L 154.844 308.444 162.133 308.622 L 169.422 308.800 169.422 310.933 L 169.422 313.067 159.022 313.161 L 148.622 313.255 148.622 296.533 L 148.622 279.811 159.022 279.906 L 169.422 280.000 169.422 282.189 C 169.422 283.393,169.542 284.304,169.689 284.213 C 170.244 283.868,169.986 279.910,169.393 279.682 C 168.210 279.228,148.609 279.442,148.430 279.911 M189.405 279.691 C 188.938 280.159,189.110 312.701,189.582 313.173 C 189.856 313.447,191.036 313.576,192.871 313.534 L 195.733 313.468 192.711 313.267 L 189.689 313.067 189.596 296.444 L 189.504 279.822 192.522 279.822 L 195.541 279.822 195.637 287.022 L 195.733 294.222 203.333 294.318 C 212.830 294.438,211.911 295.251,211.911 286.726 L 211.911 279.851 214.667 279.726 L 217.422 279.601 214.578 279.623 L 211.733 279.644 211.556 286.756 L 211.378 293.867 203.652 293.962 L 195.926 294.058 195.830 286.851 L 195.733 279.644 192.694 279.543 C 191.023 279.487,189.543 279.554,189.405 279.691 M237.600 279.712 C 237.942 279.801,238.502 279.801,238.844 279.712 C 239.187 279.622,238.907 279.549,238.222 279.549 C 237.538 279.549,237.258 279.622,237.600 279.712 M245.422 279.712 C 245.764 279.801,246.324 279.801,246.667 279.712 C 247.009 279.622,246.729 279.549,246.044 279.549 C 245.360 279.549,245.080 279.622,245.422 279.712 M270.152 279.732 C 272.167 279.796,275.367 279.795,277.263 279.732 C 279.160 279.668,277.511 279.616,273.600 279.616 C 269.689 279.616,268.137 279.669,270.152 279.732 M307.323 280.015 C 307.207 280.317,307.212 280.664,307.334 280.786 C 307.456 280.908,307.556 280.741,307.556 280.415 C 307.556 279.508,313.753 279.535,314.283 280.444 C 314.482 280.787,314.650 280.899,314.656 280.693 C 314.693 279.401,307.803 278.764,307.323 280.015 M332.252 279.911 C 332.158 280.156,332.123 287.796,332.174 296.889 L 332.267 313.422 334.720 313.529 C 336.070 313.587,337.303 313.507,337.460 313.351 C 337.617 313.195,336.553 313.119,335.095 313.184 L 332.444 313.301 332.444 296.579 L 332.444 279.858 334.489 279.729 L 336.533 279.601 334.478 279.534 C 333.108 279.489,332.365 279.615,332.252 279.911 M355.361 279.915 C 355.267 280.161,355.234 285.321,355.289 291.381 L 355.388 302.400 355.472 291.083 L 355.556 279.766 358.189 279.883 C 359.638 279.947,360.749 279.880,360.657 279.733 C 360.362 279.258,355.550 279.423,355.361 279.915 M132.622 280.178 C 133.838 280.567,134.773 280.567,133.867 280.178 C 133.476 280.010,132.836 279.877,132.444 279.883 C 131.873 279.891,131.908 279.949,132.622 280.178 M266.126 296.533 L 266.133 313.422 273.778 313.437 L 281.422 313.451 273.956 313.259 L 266.489 313.067 266.304 296.356 L 266.119 279.644 266.126 296.533 M282.667 280.178 C 283.882 280.567,284.817 280.567,283.911 280.178 C 283.520 280.010,282.880 279.877,282.489 279.883 C 281.917 279.891,281.952 279.949,282.667 280.178 M98.148 280.397 C 98.129 280.914,99.618 284.500,99.784 284.335 C 99.853 284.265,99.517 283.261,99.037 282.104 C 98.556 280.947,98.157 280.179,98.148 280.397 M71.496 281.360 C 71.578 281.423,72.204 281.836,72.889 282.278 L 74.133 283.081 73.067 282.164 C 72.480 281.660,71.853 281.247,71.674 281.246 C 71.495 281.245,71.415 281.296,71.496 281.360 M231.931 282.159 L 230.933 283.074 232.089 282.270 C 232.724 281.828,233.244 281.416,233.244 281.355 C 233.244 281.075,232.851 281.315,231.931 282.159 M252.360 282.667 C 253.342 283.449,254.258 284.089,254.394 284.089 C 254.530 284.089,253.832 283.449,252.842 282.667 C 251.853 281.884,250.938 281.244,250.808 281.244 C 250.679 281.244,251.378 281.884,252.360 282.667 M314.678 281.600 C 314.678 281.893,314.833 282.373,315.022 282.667 C 315.329 283.141,315.367 283.141,315.367 282.667 C 315.367 282.373,315.212 281.893,315.022 281.600 C 314.716 281.126,314.678 281.126,314.678 281.600 M339.870 283.676 C 340.266 284.231,340.870 284.911,341.214 285.187 C 341.557 285.463,341.298 285.009,340.637 284.178 C 339.281 282.471,338.778 282.142,339.870 283.676 M49.030 284.473 C 47.675 286.117,46.108 288.716,46.336 288.943 C 46.418 289.025,46.737 288.561,47.044 287.913 C 47.352 287.264,47.943 286.338,48.357 285.855 C 48.771 285.373,49.432 284.603,49.826 284.145 C 50.219 283.687,50.473 283.243,50.390 283.160 C 50.306 283.076,49.694 283.667,49.030 284.473 M228.648 285.227 C 227.667 286.440,226.708 287.880,226.517 288.427 C 226.017 289.862,226.297 289.652,227.204 287.913 C 227.636 287.083,228.627 285.643,229.406 284.713 C 230.185 283.783,230.734 283.022,230.627 283.022 C 230.520 283.022,229.629 284.014,228.648 285.227 M59.502 284.717 C 59.277 284.860,60.672 284.978,62.601 284.978 C 64.531 284.978,65.835 284.869,65.499 284.736 C 64.669 284.407,60.010 284.392,59.502 284.717 M122.311 289.206 C 122.311 294.769,122.034 294.431,126.518 294.332 L 129.600 294.264 126.222 294.065 L 122.844 293.867 122.844 289.155 C 122.844 286.564,122.724 284.444,122.578 284.444 C 122.431 284.444,122.311 286.587,122.311 289.206 M130.091 284.828 C 130.947 284.997,132.027 285.383,132.491 285.686 C 132.954 285.990,133.333 286.153,133.333 286.047 C 133.333 285.532,130.875 284.452,129.778 284.485 C 128.559 284.522,128.566 284.529,130.091 284.828 M154.744 289.333 L 154.822 294.222 154.932 289.519 L 155.043 284.815 162.055 284.711 L 169.067 284.606 161.867 284.525 L 154.667 284.444 154.744 289.333 M239.412 284.717 C 239.186 284.860,240.411 284.978,242.133 284.978 C 243.856 284.978,245.081 284.860,244.855 284.717 C 244.629 284.573,243.404 284.455,242.133 284.455 C 240.862 284.455,239.638 284.573,239.412 284.717 M272.420 289.333 C 272.485 294.292,272.622 293.704,272.794 287.733 C 272.846 285.923,272.769 284.443,272.622 284.444 C 272.476 284.444,272.384 286.644,272.420 289.333 M280.561 284.964 C 283.036 285.774,283.556 286.553,283.554 289.452 C 283.553 290.795,283.662 291.618,283.796 291.280 C 284.964 288.334,283.195 285.077,280.178 284.620 C 279.120 284.460,279.178 284.512,280.561 284.964 M235.733 286.350 C 234.224 287.460,232.950 288.711,233.329 288.711 C 233.423 288.711,234.063 288.181,234.750 287.533 C 235.437 286.885,236.540 286.088,237.200 285.763 C 237.860 285.438,238.160 285.172,237.867 285.172 C 237.573 285.173,236.613 285.703,235.733 286.350 M246.947 285.823 C 248.523 286.539,251.378 289.532,251.378 290.468 C 251.378 290.792,251.522 291.210,251.699 291.396 C 251.875 291.581,252.097 292.053,252.191 292.444 C 252.349 293.102,252.365 293.097,252.403 292.377 C 252.426 291.948,252.284 291.499,252.089 291.378 C 251.893 291.257,251.733 290.865,251.733 290.506 C 251.733 289.131,247.429 285.139,245.973 285.163 C 245.719 285.168,246.157 285.465,246.947 285.823 M72.627 286.432 C 72.028 287.115,71.631 287.279,71.027 287.096 C 70.379 286.901,70.307 286.942,70.657 287.310 C 71.215 287.897,72.672 287.291,73.235 286.240 C 73.749 285.280,73.593 285.329,72.627 286.432 M139.896 288.134 C 139.904 289.609,140.020 290.542,140.153 290.208 C 140.471 289.407,140.462 286.927,140.138 286.104 C 139.997 285.746,139.888 286.659,139.896 288.134 M289.926 288.509 C 289.938 290.838,289.993 291.107,290.242 290.053 C 290.411 289.338,290.405 288.099,290.228 287.233 C 289.942 285.838,289.913 285.962,289.926 288.509 M316.470 285.948 C 316.429 286.369,317.587 289.109,317.741 288.955 C 317.818 288.878,317.569 288.111,317.188 287.252 C 316.807 286.392,316.483 285.806,316.470 285.948 M343.736 288.659 C 344.859 290.194,345.840 291.398,345.917 291.335 C 346.075 291.203,342.117 285.867,341.861 285.867 C 341.770 285.867,342.614 287.123,343.736 288.659 M304.752 286.460 C 304.730 286.688,304.608 287.168,304.481 287.526 C 304.302 288.032,304.350 288.087,304.692 287.771 C 304.935 287.547,305.057 287.067,304.963 286.704 C 304.870 286.341,304.775 286.231,304.752 286.460 M310.205 287.322 C 309.892 287.927,309.707 288.492,309.793 288.578 C 309.878 288.664,310.154 288.238,310.405 287.632 C 310.737 286.832,310.943 286.658,311.159 286.998 C 311.383 287.352,311.457 287.315,311.461 286.844 C 311.470 285.870,310.830 286.113,310.205 287.322 M133.364 286.933 C 133.375 287.227,133.521 287.787,133.689 288.178 L 133.994 288.889 134.014 288.178 C 134.025 287.787,133.878 287.227,133.689 286.933 C 133.383 286.459,133.346 286.459,133.364 286.933 M256.465 286.844 C 256.549 286.991,256.856 287.671,257.149 288.356 C 258.480 291.468,258.493 291.492,258.251 290.311 C 258.012 289.144,256.811 286.578,256.505 286.578 C 256.400 286.578,256.382 286.698,256.465 286.844 M53.715 288.259 C 53.114 288.988,52.622 289.743,52.622 289.938 C 52.622 290.132,52.887 289.896,53.211 289.412 C 53.535 288.929,54.123 288.173,54.517 287.733 C 54.912 287.293,55.139 286.933,55.021 286.933 C 54.904 286.933,54.316 287.530,53.715 288.259 M100.652 287.111 C 100.652 287.307,100.959 288.027,101.333 288.711 C 101.708 289.396,102.015 289.796,102.015 289.600 C 102.015 289.404,101.708 288.684,101.333 288.000 C 100.959 287.316,100.652 286.916,100.652 287.111 M311.478 288.000 C 311.478 288.293,311.633 288.773,311.822 289.067 C 312.129 289.541,312.167 289.541,312.167 289.067 C 312.167 288.773,312.012 288.293,311.822 288.000 C 311.516 287.526,311.478 287.526,311.478 288.000 M95.674 288.711 C 95.677 289.368,96.642 291.535,96.682 290.974 C 96.698 290.752,96.477 290.032,96.192 289.374 C 95.906 288.716,95.673 288.418,95.674 288.711 M303.720 289.078 C 303.483 289.458,303.290 289.970,303.291 290.217 C 303.292 290.464,303.535 290.203,303.831 289.636 C 304.447 288.455,304.365 288.044,303.720 289.078 M93.078 289.778 C 92.957 290.267,92.756 291.067,92.631 291.556 C 92.491 292.108,92.619 291.981,92.971 291.218 C 93.282 290.544,93.483 289.744,93.417 289.441 C 93.342 289.094,93.216 289.220,93.078 289.778 M312.207 290.004 C 312.191 290.226,312.412 290.946,312.697 291.604 C 312.983 292.262,313.216 292.560,313.214 292.267 C 313.212 291.610,312.247 289.443,312.207 290.004 M102.071 290.489 C 102.070 291.001,103.073 293.037,103.099 292.574 C 103.105 292.450,102.877 291.810,102.592 291.152 C 102.306 290.494,102.072 290.196,102.071 290.489 M231.890 291.679 C 231.657 292.323,231.474 293.079,231.484 293.359 C 231.493 293.638,231.744 293.171,232.042 292.321 C 232.340 291.471,232.523 290.715,232.449 290.641 C 232.375 290.567,232.123 291.034,231.890 291.679 M339.088 291.936 C 339.824 292.731,340.951 294.120,341.591 295.021 C 342.232 295.921,342.751 296.510,342.746 296.329 C 342.727 295.715,338.519 290.489,338.043 290.489 C 337.881 290.489,338.352 291.140,339.088 291.936 M86.481 292.000 C 85.875 293.674,85.959 294.128,86.601 292.649 C 86.891 291.979,87.081 291.288,87.023 291.113 C 86.964 290.938,86.720 291.337,86.481 292.000 M139.406 291.589 C 139.390 291.901,139.058 292.446,138.667 292.800 C 138.276 293.154,137.956 293.591,137.956 293.771 C 137.956 293.952,138.369 293.607,138.875 293.007 C 139.380 292.406,139.713 291.714,139.614 291.468 C 139.496 291.177,139.424 291.219,139.406 291.589 M302.421 292.449 C 301.653 294.287,301.755 294.494,302.619 292.855 C 303.016 292.104,303.258 291.406,303.158 291.306 C 303.057 291.205,302.726 291.720,302.421 292.449 M45.028 292.341 C 44.908 292.789,44.826 293.716,44.846 294.400 C 44.876 295.408,44.944 295.279,45.202 293.723 C 45.529 291.755,45.419 290.882,45.028 292.341 M288.778 292.608 C 287.912 293.779,287.741 294.354,288.477 293.618 C 288.981 293.114,289.890 291.556,289.679 291.556 C 289.611 291.556,289.206 292.029,288.778 292.608 M225.149 292.978 C 225.149 293.662,225.222 293.942,225.312 293.600 C 225.401 293.258,225.401 292.698,225.312 292.356 C 225.222 292.013,225.149 292.293,225.149 292.978 M51.424 293.067 C 51.121 294.196,51.158 299.473,51.472 299.963 C 51.616 300.187,51.733 298.547,51.733 296.319 C 51.733 291.893,51.735 291.908,51.424 293.067 M347.088 292.889 C 347.380 293.231,349.258 295.631,351.261 298.222 C 353.264 300.813,354.990 302.933,355.095 302.933 C 355.201 302.933,355.135 302.733,354.949 302.489 C 354.187 301.486,351.228 297.716,350.553 296.889 C 350.154 296.400,349.237 295.166,348.514 294.147 C 347.791 293.128,347.055 292.288,346.878 292.280 C 346.701 292.273,346.796 292.547,347.088 292.889 M131.357 293.500 C 130.977 293.787,130.827 294.022,131.022 294.022 C 131.218 294.022,131.688 293.787,132.068 293.500 C 132.448 293.213,132.598 292.978,132.403 292.978 C 132.207 292.978,131.736 293.213,131.357 293.500 M281.401 293.500 C 281.022 293.787,280.871 294.022,281.067 294.022 C 281.262 294.022,281.733 293.787,282.112 293.500 C 282.492 293.213,282.643 292.978,282.447 292.978 C 282.251 292.978,281.781 293.213,281.401 293.500 M319.302 293.156 C 319.278 293.649,321.483 299.080,321.643 298.920 C 321.714 298.849,321.221 297.443,320.546 295.795 C 319.872 294.148,319.312 292.960,319.302 293.156 M91.658 293.876 C 91.548 294.262,91.350 294.898,91.218 295.289 C 91.085 295.680,91.237 295.550,91.555 295.001 C 91.874 294.451,92.072 293.816,91.996 293.588 C 91.920 293.360,91.768 293.490,91.658 293.876 M252.569 296.178 C 252.569 297.840,252.630 298.520,252.705 297.689 C 252.780 296.858,252.780 295.498,252.705 294.667 C 252.630 293.836,252.569 294.516,252.569 296.178 M259.011 296.533 C 259.015 299.689,259.036 299.788,259.336 298.043 C 259.527 296.927,259.526 295.567,259.332 294.665 C 259.054 293.371,259.008 293.638,259.011 296.533 M274.578 294.306 C 275.507 294.379,277.027 294.379,277.956 294.306 C 278.884 294.233,278.124 294.173,276.267 294.173 C 274.409 294.173,273.649 294.233,274.578 294.306 M301.539 294.684 C 301.524 294.938,301.191 295.808,300.800 296.617 C 300.409 297.427,300.094 298.259,300.101 298.467 C 300.108 298.674,300.515 297.986,301.006 296.936 C 301.497 295.886,301.824 294.846,301.733 294.625 C 301.625 294.363,301.557 294.383,301.539 294.684 M307.341 295.022 C 307.235 295.364,307.000 295.922,306.818 296.262 C 306.637 296.601,306.490 297.081,306.491 297.329 C 306.494 297.880,307.354 296.277,307.638 295.190 C 307.881 294.260,307.622 294.114,307.341 295.022 M103.822 295.070 C 103.822 295.552,104.822 297.600,105.058 297.600 C 105.210 297.600,104.221 295.058,103.963 294.785 C 103.885 294.704,103.822 294.832,103.822 295.070 M135.507 295.424 C 134.911 295.882,134.786 296.154,135.086 296.340 C 135.322 296.486,135.610 296.509,135.727 296.391 C 135.845 296.274,135.714 296.177,135.437 296.175 C 135.160 296.174,135.413 295.855,136.000 295.467 C 136.587 295.078,136.907 294.763,136.711 294.766 C 136.516 294.769,135.974 295.065,135.507 295.424 M285.552 295.424 C 284.955 295.882,284.830 296.154,285.131 296.340 C 285.366 296.486,285.654 296.509,285.772 296.391 C 285.889 296.274,285.781 296.178,285.531 296.178 C 285.281 296.178,285.455 295.863,285.916 295.478 C 286.977 294.595,286.686 294.551,285.552 295.424 M98.147 295.337 C 98.140 295.559,98.367 296.279,98.653 296.937 C 98.938 297.595,99.178 297.952,99.186 297.730 C 99.194 297.508,98.966 296.788,98.681 296.130 C 98.395 295.472,98.155 295.115,98.147 295.337 M231.208 296.533 C 231.208 297.413,231.277 297.773,231.362 297.333 C 231.447 296.893,231.447 296.173,231.362 295.733 C 231.277 295.293,231.208 295.653,231.208 296.533 M63.526 296.770 C 63.071 297.226,63.293 299.959,63.842 300.643 C 64.368 301.300,64.375 301.293,63.987 300.495 C 63.762 300.035,63.635 298.955,63.703 298.095 C 63.771 297.236,63.813 296.533,63.795 296.533 C 63.777 296.533,63.656 296.640,63.526 296.770 M74.593 303.145 C 74.667 307.796,74.575 309.905,74.283 310.256 C 74.032 310.559,74.011 310.756,74.230 310.756 C 74.428 310.756,74.688 310.502,74.806 310.193 C 75.120 309.377,75.072 296.533,74.756 296.533 C 74.609 296.533,74.536 299.508,74.593 303.145 M137.067 297.122 C 137.653 297.431,138.693 298.184,139.377 298.797 L 140.621 299.911 139.555 298.724 C 138.550 297.604,136.914 296.516,136.284 296.548 C 136.128 296.555,136.480 296.814,137.067 297.122 M287.070 296.973 C 288.774 298.116,289.911 299.254,290.344 300.249 C 290.619 300.880,290.822 301.078,290.831 300.723 C 290.850 299.890,288.850 297.679,287.503 297.043 C 286.896 296.757,286.701 296.725,287.070 296.973 M105.273 298.489 C 105.271 298.880,105.498 299.600,105.778 300.089 C 106.427 301.225,106.430 300.982,105.788 299.200 C 105.506 298.418,105.274 298.098,105.273 298.489 M44.825 299.052 C 44.839 299.524,44.995 300.231,45.172 300.622 C 45.397 301.118,45.429 300.902,45.278 299.911 C 45.026 298.260,44.789 297.809,44.825 299.052 M315.586 299.308 L 315.798 300.483 310.787 300.375 C 308.031 300.315,305.777 300.387,305.777 300.533 C 305.778 300.680,308.023 300.800,310.767 300.800 C 316.134 300.800,316.464 300.681,315.744 298.999 C 315.414 298.226,315.397 298.259,315.586 299.308 M122.466 299.131 C 122.368 299.386,122.333 301.586,122.389 304.020 L 122.489 308.444 127.023 308.461 L 131.557 308.478 127.112 308.362 L 122.667 308.245 122.667 303.663 C 122.667 300.331,122.788 299.033,123.111 298.902 C 123.459 298.762,123.457 298.717,123.100 298.695 C 122.849 298.679,122.564 298.876,122.466 299.131 M195.714 299.122 C 195.618 299.373,195.587 302.613,195.645 306.322 L 195.750 313.067 195.831 306.074 C 195.890 300.875,196.025 299.035,196.356 298.902 C 196.704 298.762,196.701 298.717,196.344 298.695 C 196.094 298.679,195.810 298.872,195.714 299.122 M211.556 306.078 L 211.733 313.422 214.844 313.525 C 216.556 313.581,217.956 313.501,217.956 313.347 C 217.957 313.193,216.597 313.118,214.934 313.182 L 211.911 313.297 211.911 306.180 C 211.911 302.267,211.791 298.990,211.644 298.899 C 211.498 298.808,211.458 302.038,211.556 306.078 M225.240 300.358 C 225.322 301.385,225.564 302.505,225.778 302.847 C 226.108 303.373,226.133 303.340,225.939 302.635 C 225.813 302.178,225.570 301.058,225.400 300.146 L 225.091 298.489 225.240 300.358 M272.434 303.556 L 272.533 308.444 276.978 308.538 C 281.982 308.643,283.089 308.274,284.446 306.048 C 286.395 302.851,284.171 298.563,280.640 298.708 C 279.738 298.745,279.762 298.772,280.889 298.997 C 283.601 299.539,284.800 300.831,284.800 303.208 C 284.800 307.108,283.033 308.264,277.067 308.265 L 272.711 308.267 272.711 303.674 C 272.711 300.333,272.832 299.033,273.156 298.902 C 273.417 298.797,273.340 298.711,272.968 298.695 C 272.387 298.669,272.343 299.061,272.434 303.556 M132.109 299.411 C 132.219 299.588,132.487 299.733,132.704 299.733 C 132.922 299.733,133.432 300.013,133.839 300.356 C 134.571 300.972,134.572 300.971,133.933 300.213 C 133.304 299.469,131.712 298.768,132.109 299.411 M231.503 300.089 C 231.497 300.578,231.721 301.378,232.000 301.867 C 232.643 302.992,232.647 302.794,232.018 300.800 C 231.661 299.665,231.511 299.458,231.503 300.089 M89.600 300.533 C 89.600 300.680,91.831 300.800,94.557 300.800 C 97.283 300.800,99.588 300.680,99.678 300.533 C 99.769 300.387,97.538 300.267,94.722 300.267 C 91.905 300.267,89.600 300.387,89.600 300.533 M140.455 300.444 C 140.455 300.738,140.610 301.218,140.800 301.511 C 141.106 301.985,141.145 301.985,141.145 301.511 C 141.145 301.218,140.990 300.738,140.800 300.444 C 140.494 299.970,140.455 299.970,140.455 300.444 M346.614 301.422 C 347.263 302.253,347.871 302.933,347.965 302.933 C 348.243 302.933,346.758 300.961,346.068 300.413 C 345.720 300.137,345.966 300.591,346.614 301.422 M251.736 301.858 C 251.462 302.688,250.511 304.176,249.623 305.164 C 248.734 306.152,248.328 306.789,248.719 306.580 C 250.109 305.836,252.687 301.705,252.365 300.739 C 252.293 300.524,252.010 301.027,251.736 301.858 M258.537 301.084 C 258.511 301.533,258.170 302.561,257.780 303.368 C 257.390 304.174,257.130 304.893,257.201 304.964 C 257.497 305.260,258.872 301.730,258.735 301.029 C 258.592 300.300,258.584 300.303,258.537 301.084 M68.573 301.441 C 68.933 301.693,69.024 302.514,68.927 304.652 C 68.855 306.231,68.924 307.396,69.081 307.239 C 69.617 306.703,69.212 301.406,68.622 301.246 C 68.189 301.129,68.180 301.165,68.573 301.441 M82.547 302.060 C 81.951 303.367,82.065 303.646,82.709 302.457 C 83.010 301.902,83.189 301.382,83.108 301.300 C 83.026 301.219,82.774 301.561,82.547 302.060 M134.862 303.644 C 134.862 304.720,134.929 305.160,135.010 304.622 C 135.092 304.084,135.092 303.204,135.010 302.667 C 134.929 302.129,134.862 302.569,134.862 303.644 M141.238 303.644 C 141.238 304.329,141.311 304.609,141.401 304.267 C 141.490 303.924,141.490 303.364,141.401 303.022 C 141.311 302.680,141.238 302.960,141.238 303.644 M323.227 303.289 C 323.225 303.801,324.228 305.837,324.254 305.374 C 324.261 305.250,324.033 304.610,323.747 303.952 C 323.462 303.294,323.227 302.996,323.227 303.289 M348.831 304.220 C 349.303 304.830,349.760 305.265,349.848 305.187 C 349.935 305.109,349.549 304.610,348.989 304.078 L 347.972 303.111 348.831 304.220 M46.228 303.822 C 46.226 304.216,47.971 307.160,47.989 306.792 C 47.995 306.665,47.602 305.865,47.115 305.014 C 46.629 304.163,46.230 303.627,46.228 303.822 M296.978 306.400 C 296.545 307.499,296.247 308.455,296.316 308.523 C 296.384 308.592,296.802 307.756,297.244 306.667 C 297.687 305.577,297.985 304.622,297.906 304.543 C 297.828 304.465,297.410 305.301,296.978 306.400 M107.760 305.067 C 107.759 305.579,108.762 307.615,108.787 307.152 C 108.794 307.028,108.566 306.388,108.281 305.730 C 107.995 305.072,107.761 304.773,107.760 305.067 M87.538 305.493 C 87.303 305.728,87.116 306.088,87.122 306.293 C 87.128 306.499,87.296 306.387,87.495 306.044 C 88.133 304.949,101.588 305.113,102.033 306.222 C 102.231 306.713,102.364 306.809,102.377 306.471 C 102.429 305.203,101.692 305.067,94.756 305.067 C 89.948 305.067,87.840 305.191,87.538 305.493 M226.844 305.273 C 226.844 305.852,229.771 309.276,231.193 310.362 L 232.711 311.521 231.057 309.983 C 230.148 309.137,228.828 307.672,228.124 306.728 C 227.420 305.784,226.844 305.130,226.844 305.273 M303.412 305.615 C 303.296 305.917,303.301 306.264,303.423 306.386 C 303.545 306.508,303.644 306.341,303.644 306.015 C 303.644 304.986,317.725 305.128,318.053 306.160 C 318.182 306.566,318.366 306.820,318.461 306.724 C 318.557 306.628,318.457 306.216,318.239 305.808 C 317.706 304.813,303.789 304.632,303.412 305.615 M133.156 307.082 C 132.373 307.784,132.053 308.192,132.444 307.989 C 133.103 307.648,135.067 305.759,134.729 305.793 C 134.646 305.801,133.938 306.381,133.156 307.082 M255.985 306.865 C 255.560 307.463,255.271 308.011,255.343 308.084 C 255.416 308.156,255.835 307.667,256.274 306.997 C 257.265 305.485,257.041 305.383,255.985 306.865 M349.867 305.889 C 349.867 305.950,350.376 306.470,350.999 307.045 L 352.132 308.089 351.266 306.953 C 350.530 305.988,349.867 305.484,349.867 305.889 M290.373 307.031 C 290.241 307.417,290.036 307.973,289.918 308.267 C 289.801 308.560,289.973 308.436,290.301 307.991 C 290.629 307.546,290.834 306.990,290.756 306.756 C 290.676 306.516,290.508 306.637,290.373 307.031 M48.889 308.221 C 49.476 308.868,50.436 309.730,51.022 310.134 C 52.283 311.004,51.998 310.697,49.600 308.599 C 48.287 307.449,48.101 307.351,48.889 308.221 M79.733 309.244 C 79.301 310.344,79.003 311.299,79.071 311.368 C 79.140 311.436,79.558 310.601,80.000 309.511 C 80.442 308.422,80.740 307.466,80.662 307.388 C 80.584 307.310,80.166 308.145,79.733 309.244 M237.867 307.895 C 238.160 308.093,238.707 308.258,239.081 308.261 C 239.991 308.268,239.707 308.065,238.400 307.773 C 237.621 307.598,237.477 307.631,237.867 307.895 M245.542 307.822 C 245.396 307.969,244.050 308.182,242.550 308.297 L 239.822 308.504 242.311 308.551 C 243.895 308.580,245.123 308.412,245.689 308.089 C 246.178 307.809,246.404 307.575,246.193 307.568 C 245.981 307.561,245.688 307.676,245.542 307.822 M325.002 307.839 C 324.989 308.093,325.287 308.940,325.664 309.721 C 326.041 310.502,326.453 311.607,326.578 312.177 L 326.805 313.212 324.202 313.335 L 321.600 313.459 324.395 313.529 L 327.190 313.600 326.964 312.391 C 326.839 311.727,326.527 310.727,326.270 310.169 C 326.013 309.612,325.628 308.756,325.414 308.267 C 325.201 307.778,325.015 307.586,325.002 307.839 M59.911 308.638 C 61.316 308.933,65.324 309.098,65.037 308.849 C 64.956 308.779,63.449 308.635,61.689 308.530 C 59.513 308.401,58.944 308.435,59.911 308.638 M109.182 308.622 C 109.181 309.135,110.184 311.170,110.210 310.707 C 110.217 310.583,109.988 309.943,109.703 309.285 C 109.417 308.627,109.183 308.329,109.182 308.622 M352.670 309.276 C 353.066 309.831,353.670 310.511,354.014 310.787 C 354.357 311.063,354.098 310.609,353.437 309.778 C 352.081 308.071,351.578 307.742,352.670 309.276 M85.747 309.882 C 85.151 311.189,85.265 311.468,85.909 310.280 C 86.210 309.725,86.389 309.204,86.308 309.123 C 86.226 309.041,85.974 309.383,85.747 309.882 M138.232 310.238 C 137.504 310.928,136.384 311.720,135.743 311.999 C 135.102 312.278,134.786 312.512,135.040 312.519 C 135.837 312.543,137.374 311.577,138.648 310.253 C 140.220 308.616,139.953 308.607,138.232 310.238 M289.029 309.556 C 288.765 309.874,287.748 310.674,286.768 311.334 C 285.789 311.994,285.116 312.533,285.274 312.533 C 285.706 312.533,288.439 310.587,289.211 309.730 C 289.583 309.316,289.803 308.978,289.699 308.978 C 289.595 308.978,289.293 309.238,289.029 309.556 M301.708 310.576 C 300.774 313.022,300.415 313.244,297.397 313.244 C 294.464 313.244,294.410 313.182,295.491 311.062 C 295.896 310.269,296.163 309.556,296.085 309.478 C 295.805 309.198,294.318 312.824,294.555 313.208 C 294.697 313.437,295.903 313.600,297.460 313.600 C 300.493 313.600,301.381 313.018,302.145 310.526 C 302.728 308.627,302.440 308.661,301.708 310.576 M252.490 310.523 C 252.272 310.786,251.450 311.291,250.665 311.645 C 249.880 311.999,249.303 312.355,249.384 312.436 C 249.610 312.662,252.255 311.234,252.778 310.604 C 253.034 310.296,253.163 310.044,253.065 310.044 C 252.967 310.044,252.708 310.260,252.490 310.523 M52.462 311.140 C 52.699 311.524,55.090 312.675,55.266 312.491 C 55.337 312.417,54.692 312.013,53.834 311.594 C 52.975 311.175,52.358 310.971,52.462 311.140 M72.297 311.444 C 71.678 311.822,70.478 312.374,69.630 312.671 C 68.782 312.968,68.386 313.218,68.748 313.227 C 69.414 313.245,72.780 311.697,73.404 311.086 C 73.938 310.564,73.517 310.700,72.297 311.444 M233.730 312.002 C 235.026 312.678,235.355 312.683,234.468 312.011 C 234.088 311.724,233.538 311.485,233.244 311.480 C 232.951 311.475,233.169 311.710,233.730 312.002 M78.381 312.564 C 77.912 313.323,78.863 313.633,81.280 313.509 L 83.733 313.384 81.118 313.314 C 78.956 313.257,78.537 313.152,78.706 312.711 C 78.943 312.093,78.731 311.997,78.381 312.564 M132.800 312.889 L 131.733 313.160 132.868 313.202 C 133.492 313.226,134.101 313.084,134.222 312.889 C 134.465 312.495,134.346 312.495,132.800 312.889 M282.844 312.889 C 281.860 313.139,281.847 313.163,282.667 313.197 C 283.156 313.217,283.796 313.078,284.089 312.889 C 284.694 312.498,284.381 312.498,282.844 312.889 M358.756 313.244 L 356.800 313.484 358.646 313.542 C 359.661 313.574,360.590 313.440,360.711 313.244 C 360.832 313.049,360.881 312.915,360.821 312.947 C 360.761 312.979,359.831 313.113,358.756 313.244 M58.931 313.658 C 59.735 313.977,66.122 313.981,66.917 313.664 C 67.250 313.531,65.449 313.420,62.914 313.417 C 60.380 313.414,58.587 313.522,58.931 313.658 M107.111 313.503 C 107.844 313.580,109.044 313.580,109.778 313.503 C 110.511 313.427,109.911 313.364,108.444 313.364 C 106.978 313.364,106.378 313.427,107.111 313.503 M238.502 313.664 C 238.837 313.797,240.471 313.906,242.133 313.906 C 243.796 313.906,245.430 313.797,245.765 313.664 C 246.099 313.531,244.465 313.422,242.133 313.422 C 239.801 313.422,238.167 313.531,238.502 313.664 " stroke="none" fill="#cc4484" fill-rule="evenodd"></path><path id="path1" d="M58.667 279.674 C 55.593 280.227,51.626 282.130,50.133 283.766 C 40.839 293.958,44.075 307.925,56.888 312.919 C 60.530 314.338,68.993 313.402,72.815 311.156 L 74.489 310.172 74.489 303.442 L 74.489 296.711 69.156 296.711 L 63.822 296.711 63.714 298.209 C 63.535 300.664,63.982 301.107,66.759 301.228 L 69.156 301.333 69.258 304.217 C 69.380 307.648,68.989 308.085,65.223 308.730 C 57.065 310.127,51.200 305.001,51.200 296.472 C 51.200 290.962,54.420 285.857,58.447 284.982 C 62.279 284.149,66.463 284.533,68.800 285.931 C 71.567 287.586,72.036 287.541,73.393 285.492 C 74.651 283.591,74.580 283.334,72.444 282.051 C 69.126 280.058,62.696 278.948,58.667 279.674 M238.400 279.688 C 232.882 280.532,228.379 284.555,225.838 290.914 C 224.565 294.100,225.091 300.925,226.897 304.637 C 227.936 306.774,232.122 311.467,232.988 311.467 C 233.189 311.467,234.208 311.871,235.252 312.365 C 239.033 314.153,245.736 313.934,250.120 311.879 C 252.807 310.618,257.067 306.497,257.067 305.157 C 257.067 304.985,257.370 304.215,257.741 303.445 C 259.773 299.229,259.441 293.324,256.862 287.822 C 254.077 281.878,246.347 278.472,238.400 279.688 M91.449 280.249 C 91.214 280.484,91.022 280.885,91.022 281.142 C 91.022 281.398,90.721 282.286,90.353 283.115 C 89.985 283.944,89.481 285.182,89.233 285.867 C 88.985 286.551,88.550 287.671,88.266 288.356 C 87.982 289.040,87.618 289.920,87.456 290.311 C 87.295 290.702,86.672 292.336,86.071 293.941 C 85.471 295.546,84.752 297.386,84.474 298.030 C 84.195 298.673,83.222 301.120,82.310 303.467 C 81.399 305.813,80.186 308.890,79.616 310.303 C 79.045 311.716,78.578 312.956,78.578 313.059 C 78.578 313.161,79.742 313.244,81.165 313.244 C 84.098 313.244,85.146 312.745,85.436 311.209 C 85.693 309.848,87.242 305.860,87.687 305.415 C 88.316 304.786,101.723 305.124,102.085 305.778 C 102.247 306.071,102.816 307.583,103.350 309.138 C 104.671 312.986,104.980 313.244,108.267 313.244 C 109.733 313.244,110.933 313.175,110.933 313.090 C 110.933 312.933,109.530 309.458,108.562 307.216 C 108.270 306.541,107.794 305.261,107.503 304.372 C 107.213 303.483,106.586 301.911,106.110 300.879 C 105.634 299.847,105.245 298.807,105.245 298.568 C 105.246 298.329,104.938 297.493,104.562 296.711 C 104.186 295.929,103.452 294.169,102.931 292.800 C 102.410 291.431,101.693 289.591,101.338 288.711 C 98.768 282.352,98.123 280.657,98.128 280.267 C 98.135 279.661,92.053 279.644,91.449 280.249 M116.429 280.267 C 116.336 280.511,116.301 287.991,116.352 296.889 L 116.444 313.067 124.622 313.067 C 133.994 313.067,135.381 312.789,138.086 310.368 C 139.591 309.021,139.852 308.569,140.750 305.753 C 141.947 302.004,140.250 298.522,136.426 296.877 L 134.625 296.102 135.490 295.437 C 135.966 295.071,136.491 294.768,136.657 294.763 C 137.399 294.744,139.374 291.962,139.750 290.406 C 140.931 285.521,138.466 281.718,133.213 280.319 C 130.718 279.655,116.681 279.611,116.429 280.267 M148.622 296.533 L 148.622 313.255 159.022 313.161 L 169.422 313.067 169.422 310.933 L 169.422 308.800 162.133 308.622 L 154.844 308.444 154.844 303.644 L 154.844 298.844 160.533 298.667 L 166.222 298.489 166.332 296.567 C 166.475 294.044,166.505 294.056,160.089 294.050 L 154.667 294.044 154.667 289.252 L 154.667 284.459 162.044 284.363 L 169.422 284.267 169.422 282.133 L 169.422 280.000 159.022 279.906 L 148.622 279.811 148.622 296.533 M189.596 296.444 L 189.689 313.067 192.615 313.170 L 195.541 313.273 195.637 306.059 L 195.733 298.844 203.733 298.844 L 211.733 298.844 211.830 306.059 L 211.926 313.273 214.852 313.170 L 217.778 313.067 217.870 296.444 L 217.963 279.822 214.937 279.822 L 211.911 279.822 211.911 286.712 C 211.911 295.254,212.830 294.438,203.333 294.318 L 195.733 294.222 195.637 287.022 L 195.541 279.822 192.522 279.822 L 189.504 279.822 189.596 296.444 M266.396 296.421 L 266.489 313.067 274.667 313.065 C 286.418 313.062,289.558 311.574,290.887 305.377 C 291.714 301.524,288.796 296.533,285.717 296.533 C 284.608 296.533,284.865 295.847,286.317 294.928 C 292.166 291.227,290.897 282.687,284.169 280.484 C 283.340 280.212,279.749 279.998,274.574 279.912 L 266.304 279.775 266.396 296.421 M306.400 283.150 C 305.667 284.974,305.067 286.647,305.067 286.867 C 305.067 287.087,304.776 287.792,304.420 288.434 C 304.064 289.075,303.519 290.320,303.209 291.200 C 302.243 293.941,301.495 295.896,300.836 297.398 C 300.487 298.193,300.000 299.404,299.754 300.089 C 299.507 300.773,299.141 301.733,298.939 302.222 C 298.737 302.711,298.452 303.431,298.305 303.822 C 297.180 306.824,296.018 309.750,295.440 311.032 C 294.458 313.212,294.486 313.245,297.333 313.239 C 300.836 313.232,300.854 313.214,302.615 308.089 L 303.593 305.244 310.806 305.244 L 318.019 305.244 319.035 307.911 C 319.595 309.378,320.143 310.898,320.254 311.289 C 320.712 312.902,321.399 313.244,324.172 313.244 L 326.812 313.244 326.581 312.193 C 326.454 311.615,326.041 310.502,325.664 309.721 C 325.287 308.940,324.978 308.083,324.978 307.817 C 324.978 307.551,324.578 306.504,324.089 305.491 C 323.600 304.477,323.200 303.485,323.200 303.286 C 323.200 303.087,323.059 302.646,322.886 302.306 C 322.469 301.487,322.086 300.552,320.523 296.533 C 319.801 294.676,319.081 292.836,318.925 292.444 C 318.769 292.053,318.059 290.213,317.348 288.356 C 316.636 286.498,315.760 284.258,315.400 283.378 C 315.040 282.498,314.571 281.338,314.358 280.800 C 313.976 279.836,313.925 279.822,310.852 279.827 L 307.733 279.833 306.400 283.150 M332.444 296.549 L 332.444 313.276 335.022 313.171 L 337.600 313.067 337.694 301.778 C 337.746 295.569,337.910 290.489,338.059 290.489 C 338.406 290.489,339.164 291.377,341.998 295.111 C 343.260 296.773,345.070 299.093,346.021 300.267 C 346.971 301.440,348.226 302.989,348.808 303.709 C 349.390 304.430,349.867 305.108,349.867 305.218 C 349.867 305.327,350.180 305.778,350.562 306.220 C 350.944 306.661,352.346 308.382,353.677 310.044 L 356.097 313.067 358.404 313.067 L 360.711 313.067 360.711 296.533 L 360.711 280.000 358.133 279.896 L 355.556 279.791 355.550 290.918 C 355.547 297.037,355.409 302.258,355.243 302.520 C 355.028 302.860,353.750 301.446,350.746 297.542 C 348.439 294.543,346.375 291.929,346.159 291.733 C 345.943 291.538,344.895 290.191,343.828 288.741 C 342.762 287.291,341.405 285.518,340.812 284.801 C 340.219 284.085,339.333 282.964,338.844 282.312 C 337.169 280.074,336.730 279.822,334.511 279.822 L 332.444 279.822 332.444 296.549 M131.923 284.984 C 133.286 285.689,134.044 287.214,134.044 289.250 C 134.044 293.133,132.027 294.400,125.846 294.400 C 122.118 294.400,122.311 294.684,122.311 289.206 L 122.311 284.444 126.595 284.444 C 129.730 284.444,131.160 284.589,131.923 284.984 M246.049 285.145 C 248.152 285.901,251.733 289.233,251.733 290.434 C 251.733 290.777,251.933 291.258,252.178 291.503 C 253.919 293.246,252.219 303.490,249.816 305.739 C 242.374 312.704,231.368 307.321,231.356 296.711 C 231.346 287.416,237.935 282.230,246.049 285.145 M281.345 284.929 C 285.748 286.793,284.732 293.518,279.948 294.174 C 277.856 294.461,273.655 294.467,272.918 294.184 C 272.444 294.002,272.356 293.221,272.356 289.206 L 272.356 284.444 276.278 284.444 C 278.791 284.444,280.612 284.618,281.345 284.929 M96.786 291.022 C 100.782 301.823,101.012 300.800,94.589 300.800 C 88.837 300.800,89.121 301.055,90.523 297.149 C 91.031 295.735,92.071 292.818,92.834 290.667 C 93.597 288.516,94.321 286.516,94.442 286.222 C 94.692 285.621,95.089 286.434,96.786 291.022 M312.342 289.515 C 312.921 291.322,313.502 293.040,313.633 293.333 C 315.021 296.429,316.136 299.809,315.939 300.323 C 315.798 300.690,314.609 300.800,310.767 300.800 L 305.778 300.800 305.778 299.928 C 305.778 299.448,305.958 298.608,306.178 298.061 C 307.081 295.814,307.309 295.256,307.603 294.578 C 307.772 294.187,308.402 292.436,309.001 290.688 C 310.898 285.160,310.941 285.145,312.342 289.515 M132.412 299.209 C 135.193 300.371,136.063 304.313,134.046 306.610 C 132.462 308.414,131.538 308.659,126.742 308.545 L 122.489 308.444 122.389 304.020 C 122.333 301.586,122.368 299.386,122.466 299.131 C 122.736 298.428,130.691 298.490,132.412 299.209 M282.653 299.193 C 286.058 300.954,286.018 305.806,282.581 307.919 C 281.558 308.548,280.901 308.620,276.978 308.538 L 272.533 308.444 272.434 303.556 L 272.335 298.667 276.985 298.667 C 280.395 298.667,281.907 298.807,282.653 299.193 " stroke="none" fill="#404850" fill-rule="evenodd"></path><path id="path2" d="M0.000 177.778 L 0.000 355.556 200.000 355.556 L 400.000 355.556 400.000 177.778 L 400.000 0.000 200.000 0.000 L 0.000 0.000 0.000 177.778 M210.667 62.115 C 212.231 62.427,213.663 62.819,213.849 62.986 C 214.035 63.153,214.470 63.289,214.817 63.289 C 215.901 63.289,219.897 65.185,224.533 67.899 C 226.293 68.929,228.613 70.260,229.689 70.857 C 230.764 71.454,232.241 72.315,232.971 72.771 C 233.700 73.227,234.356 73.600,234.428 73.600 C 234.546 73.600,240.437 77.029,241.778 77.878 C 242.071 78.064,243.031 78.621,243.911 79.117 C 244.791 79.612,245.991 80.307,246.578 80.661 C 247.164 81.015,248.364 81.708,249.244 82.202 C 250.124 82.696,251.484 83.469,252.267 83.921 C 253.049 84.372,254.404 85.129,255.279 85.603 C 256.153 86.076,257.298 86.769,257.823 87.143 C 258.347 87.517,258.880 87.822,259.007 87.822 C 259.134 87.822,260.549 88.688,262.152 89.747 C 270.989 95.582,276.934 104.662,278.935 115.378 C 279.613 119.005,279.730 168.666,279.069 172.245 C 277.392 181.331,272.797 189.578,266.228 195.289 C 263.980 197.243,260.335 199.822,259.820 199.822 C 259.667 199.822,258.865 200.253,258.037 200.780 C 257.210 201.306,255.493 202.322,254.222 203.037 C 252.951 203.752,250.951 204.898,249.778 205.584 C 246.931 207.247,241.766 210.225,236.978 212.964 C 234.827 214.195,232.507 215.555,231.822 215.988 C 229.448 217.487,222.620 221.301,219.378 222.938 C 216.707 224.286,214.794 225.026,212.800 225.484 C 207.024 226.809,201.650 227.188,198.151 226.517 C 197.212 226.338,195.404 225.995,194.133 225.756 C 192.862 225.517,191.670 225.184,191.484 225.016 C 191.299 224.848,190.836 224.711,190.455 224.711 C 189.744 224.711,181.854 220.857,180.267 219.734 C 179.778 219.388,178.818 218.793,178.133 218.411 C 176.689 217.606,174.211 216.216,171.864 214.895 C 170.958 214.386,169.486 213.506,168.594 212.940 C 167.702 212.374,166.833 211.911,166.662 211.911 C 166.492 211.911,165.843 211.527,165.221 211.058 C 164.598 210.588,163.529 209.895,162.844 209.516 C 162.160 209.138,160.840 208.402,159.911 207.881 C 158.982 207.360,157.462 206.510,156.533 205.994 C 155.604 205.477,154.444 204.791,153.956 204.470 C 153.467 204.148,152.587 203.657,152.000 203.378 C 151.413 203.099,150.456 202.544,149.872 202.146 C 149.288 201.748,148.488 201.247,148.094 201.033 C 145.497 199.621,143.619 198.511,142.266 197.588 C 140.118 196.122,133.333 189.298,133.333 188.603 C 133.333 188.500,133.053 188.114,132.711 187.747 C 131.283 186.214,128.526 179.998,127.185 175.289 C 126.444 172.688,126.423 171.943,126.304 145.244 C 126.172 115.668,126.157 115.941,128.309 108.890 C 129.542 104.847,133.586 98.565,137.410 94.750 C 139.687 92.479,145.848 87.822,146.576 87.822 C 146.661 87.822,148.076 87.030,149.721 86.061 C 151.366 85.092,153.431 83.884,154.311 83.377 C 155.191 82.870,157.191 81.700,158.756 80.778 C 160.320 79.856,162.000 78.902,162.489 78.659 C 162.978 78.416,163.938 77.871,164.622 77.449 C 165.307 77.027,166.507 76.328,167.289 75.895 C 169.812 74.498,174.385 71.853,174.933 71.473 C 175.647 70.978,180.635 68.125,183.289 66.694 C 184.462 66.061,185.742 65.370,186.133 65.157 C 192.607 61.639,202.281 60.440,210.667 62.115 M194.264 78.924 C 193.065 79.061,191.385 79.348,190.531 79.562 C 189.677 79.775,188.178 80.143,187.200 80.378 C 173.440 83.691,159.820 92.424,151.572 103.221 C 150.647 104.432,149.765 105.476,149.612 105.541 C 149.459 105.606,149.333 105.824,149.333 106.026 C 149.333 106.228,148.778 107.150,148.099 108.075 C 134.777 126.223,133.959 154.992,146.142 176.889 C 147.062 178.542,150.216 183.251,150.931 184.039 C 151.128 184.257,151.760 185.057,152.337 185.817 C 153.654 187.556,159.261 193.139,161.582 195.022 C 163.340 196.449,168.113 199.822,168.374 199.822 C 168.450 199.822,169.731 200.542,171.219 201.422 C 172.708 202.302,174.046 203.022,174.193 203.022 C 174.340 203.022,175.567 203.552,176.919 204.199 C 178.271 204.846,180.098 205.584,180.978 205.839 C 181.858 206.094,182.898 206.427,183.289 206.578 C 183.680 206.729,184.720 207.041,185.600 207.272 C 186.480 207.504,187.745 207.861,188.410 208.067 C 192.746 209.408,207.190 209.902,212.800 208.902 C 218.459 207.893,226.532 205.608,227.360 204.782 C 227.546 204.596,227.916 204.444,228.182 204.444 C 228.860 204.444,233.052 202.416,235.296 201.003 C 236.326 200.353,237.257 199.822,237.364 199.822 C 237.580 199.822,239.913 198.117,240.648 197.422 C 240.906 197.178,241.242 196.978,241.393 196.978 C 241.545 196.978,242.000 196.698,242.405 196.356 C 242.810 196.013,244.368 194.696,245.867 193.429 C 263.543 178.487,271.879 152.922,266.681 129.600 C 266.164 127.284,264.939 122.900,264.594 122.134 C 264.417 121.742,263.744 120.142,263.097 118.578 C 262.450 117.013,261.200 114.374,260.320 112.713 C 258.866 109.968,257.863 108.391,254.735 103.931 C 247.732 93.949,232.849 84.179,218.844 80.372 C 213.038 78.793,201.409 78.108,194.264 78.924 M210.844 80.542 C 220.089 81.753,228.624 84.709,235.651 89.132 C 236.682 89.780,237.621 90.311,237.738 90.311 C 237.855 90.311,238.467 90.751,239.098 91.289 C 239.730 91.827,241.231 92.970,242.434 93.829 C 249.946 99.192,259.533 112.074,262.246 120.448 C 262.546 121.375,262.921 122.453,263.079 122.844 C 266.948 132.402,267.769 146.191,265.175 158.044 C 263.371 166.286,258.060 177.859,254.056 182.271 C 253.854 182.494,253.049 183.508,252.267 184.524 C 244.238 194.957,229.514 203.997,216.356 206.573 C 215.182 206.803,213.502 207.177,212.622 207.405 C 210.373 207.987,195.621 207.957,193.067 207.365 C 191.991 207.116,190.231 206.741,189.156 206.533 C 171.376 203.086,154.203 189.772,145.823 172.939 C 142.934 167.136,141.866 164.029,140.087 156.267 C 137.553 145.202,139.384 128.944,144.385 118.109 C 144.956 116.873,145.422 115.802,145.422 115.729 C 145.422 115.620,147.695 111.740,149.793 108.267 C 152.733 103.401,166.037 90.311,168.044 90.311 C 168.155 90.311,168.670 90.009,169.190 89.640 C 170.849 88.459,177.569 85.039,179.393 84.447 C 180.362 84.133,181.476 83.730,181.867 83.553 C 183.221 82.938,188.634 81.502,191.111 81.099 C 192.480 80.876,194.400 80.556,195.378 80.387 C 198.281 79.885,206.458 79.967,210.844 80.542 M179.201 124.685 C 169.939 126.642,165.049 137.620,167.499 150.957 C 170.691 168.331,196.151 167.723,198.265 150.222 C 199.261 141.978,199.162 141.867,190.866 141.867 C 182.781 141.867,182.756 141.875,182.756 144.669 C 182.756 147.712,183.091 147.911,188.206 147.911 L 192.356 147.911 192.356 148.894 C 192.356 158.772,176.690 160.678,173.835 151.147 C 172.993 148.335,173.564 136.901,174.626 135.289 C 178.627 129.220,186.145 128.960,190.390 134.742 L 191.726 136.562 194.441 136.459 C 197.096 136.358,197.158 136.335,197.266 135.395 C 197.494 133.419,192.540 127.300,189.732 126.089 C 189.122 125.826,188.142 125.409,187.556 125.161 C 186.436 124.689,180.724 124.363,179.201 124.685 M211.467 125.540 C 210.887 125.877,210.844 127.139,210.844 143.992 C 210.844 164.694,210.596 163.200,214.041 163.200 C 217.445 163.200,217.244 163.612,217.244 156.628 C 217.244 149.586,216.921 150.256,221.156 148.517 C 224.114 147.302,227.685 145.803,229.920 144.839 C 232.283 143.819,232.178 143.427,232.178 153.215 C 232.178 163.920,231.974 163.200,235.005 163.200 C 238.870 163.200,238.578 164.751,238.578 144.215 C 238.578 123.725,238.829 125.156,235.226 125.156 C 232.019 125.156,232.178 124.832,232.178 131.352 C 232.178 136.844,232.071 137.168,230.051 137.786 C 229.565 137.935,228.004 138.593,226.582 139.250 C 225.160 139.907,223.922 140.444,223.830 140.444 C 223.646 140.444,219.908 142.097,218.938 142.608 C 217.245 143.500,217.244 143.494,217.244 134.471 C 217.244 128.363,217.126 125.890,216.818 125.582 C 216.299 125.063,212.339 125.032,211.467 125.540 M68.623 279.988 C 70.991 280.806,73.109 281.943,73.970 282.860 L 74.733 283.672 73.759 285.334 C 72.392 287.666,71.574 287.961,69.773 286.769 C 61.324 281.178,51.754 286.265,51.740 296.356 C 51.727 304.660,55.064 308.375,62.575 308.421 C 68.254 308.456,68.964 307.979,68.972 304.127 C 68.979 301.215,68.918 301.156,65.939 301.156 C 63.682 301.156,63.185 300.588,63.358 298.209 L 63.467 296.711 69.244 296.613 L 75.022 296.516 75.017 303.191 C 75.010 311.018,75.335 310.203,71.406 312.251 C 64.765 315.712,53.914 313.776,48.827 308.221 C 45.630 304.730,43.762 296.345,45.185 291.875 C 47.189 285.582,50.648 281.809,56.010 280.069 C 59.284 279.007,65.662 278.966,68.623 279.988 M248.106 280.028 C 248.830 280.346,249.822 280.786,250.311 281.007 C 251.344 281.474,254.213 283.667,254.808 284.444 C 255.032 284.738,255.568 285.378,255.998 285.867 C 258.414 288.611,259.861 294.543,259.197 298.973 C 257.345 311.329,245.554 317.402,233.828 312.038 C 221.576 306.434,222.028 286.370,234.535 280.644 C 238.034 279.042,245.129 278.720,248.106 280.028 M98.033 279.911 C 98.221 280.156,98.893 281.716,99.528 283.378 C 100.162 285.040,100.982 287.120,101.349 288.000 C 102.288 290.248,105.577 298.628,106.023 299.911 C 106.227 300.498,106.600 301.458,106.850 302.044 C 107.101 302.631,107.972 304.871,108.784 307.022 C 109.597 309.173,110.413 311.211,110.598 311.551 C 111.573 313.346,111.139 313.685,108.040 313.544 C 104.619 313.389,104.590 313.361,102.895 308.663 L 101.789 305.600 94.735 305.600 L 87.680 305.600 86.821 307.911 C 86.349 309.182,85.758 310.782,85.509 311.467 C 84.914 313.102,83.883 313.588,80.999 313.595 C 78.494 313.600,77.981 313.326,78.537 312.281 C 78.724 311.931,79.233 310.684,79.668 309.511 C 80.104 308.338,80.660 306.898,80.904 306.311 C 81.148 305.724,81.937 303.724,82.657 301.867 C 83.378 300.009,84.274 297.811,84.650 296.982 C 85.026 296.153,85.333 295.311,85.333 295.110 C 85.333 294.910,85.481 294.468,85.660 294.129 C 85.840 293.789,86.344 292.551,86.779 291.378 C 87.215 290.204,87.804 288.684,88.088 288.000 C 89.080 285.615,89.199 285.319,90.108 282.962 C 90.611 281.657,91.022 280.430,91.022 280.236 C 91.022 279.398,97.410 279.102,98.033 279.911 M131.820 279.802 C 140.876 281.112,143.611 290.773,136.222 295.350 L 135.022 296.093 136.341 296.529 C 142.931 298.704,142.760 309.689,136.098 312.160 C 135.458 312.398,134.613 312.769,134.222 312.985 C 133.136 313.583,117.136 313.818,116.446 313.246 C 115.717 312.641,115.629 279.995,116.356 279.702 C 117.134 279.388,129.511 279.468,131.820 279.802 M169.393 279.682 C 170.290 280.026,170.186 283.940,169.268 284.432 C 168.863 284.649,165.794 284.800,161.801 284.800 L 155.022 284.800 155.022 289.413 L 155.022 294.027 160.800 294.125 L 166.578 294.222 166.686 296.323 C 166.827 299.049,166.916 299.010,160.444 299.017 L 155.022 299.022 155.022 303.644 L 155.022 308.267 161.926 308.267 C 170.339 308.267,169.956 308.148,169.956 310.750 C 169.956 313.743,170.436 313.624,158.712 313.517 L 148.444 313.422 148.352 296.889 C 148.301 287.796,148.336 280.156,148.430 279.911 C 148.609 279.442,168.210 279.228,169.393 279.682 M195.830 286.851 L 195.926 294.058 203.652 293.962 L 211.378 293.867 211.556 286.756 L 211.733 279.644 214.756 279.644 L 217.778 279.644 217.870 296.636 L 217.962 313.628 214.848 313.525 L 211.733 313.422 211.556 306.133 L 211.378 298.844 204.444 298.744 C 194.855 298.604,195.911 297.736,195.911 305.755 C 195.911 309.451,195.814 312.728,195.695 313.038 C 195.425 313.743,190.266 313.857,189.582 313.173 C 189.110 312.701,188.938 280.159,189.405 279.691 C 189.543 279.554,191.023 279.487,192.694 279.543 L 195.733 279.644 195.830 286.851 M281.836 279.798 C 286.418 280.461,289.376 282.873,290.096 286.533 C 290.867 290.452,290.017 292.546,286.664 294.980 L 285.150 296.079 286.687 296.666 C 292.518 298.893,292.965 307.312,287.457 311.194 C 284.534 313.254,283.672 313.401,274.489 313.412 L 266.133 313.422 266.041 296.734 C 265.968 283.620,266.044 279.985,266.396 279.762 C 267.005 279.375,279.110 279.404,281.836 279.798 M314.208 279.911 C 314.395 280.156,314.753 280.916,315.004 281.600 C 315.256 282.284,315.659 283.324,315.901 283.911 C 316.142 284.498,316.699 285.938,317.138 287.111 C 317.577 288.284,318.078 289.564,318.251 289.956 C 318.425 290.347,319.782 293.787,321.267 297.600 C 322.753 301.413,324.180 305.013,324.439 305.600 C 324.699 306.187,325.193 307.467,325.539 308.444 C 325.884 309.422,326.285 310.382,326.429 310.578 C 326.574 310.773,326.804 311.533,326.941 312.267 L 327.190 313.600 324.468 313.600 C 321.617 313.600,320.000 312.768,320.000 311.300 C 320.000 310.995,319.859 310.468,319.686 310.129 C 319.334 309.436,318.859 308.291,318.215 306.578 L 317.780 305.422 310.768 305.422 L 303.755 305.422 302.722 308.666 C 301.292 313.155,300.818 313.600,297.460 313.600 C 294.221 313.600,294.047 313.384,295.215 310.804 C 295.714 309.702,296.638 307.440,297.268 305.778 C 298.630 302.184,299.321 300.487,299.763 299.649 C 299.942 299.310,300.089 298.742,300.089 298.387 C 300.089 298.032,300.227 297.590,300.397 297.404 C 300.566 297.219,301.147 295.867,301.689 294.400 C 302.230 292.933,302.812 291.581,302.981 291.396 C 303.150 291.210,303.289 290.699,303.289 290.261 C 303.289 289.823,303.437 289.373,303.619 289.260 C 303.800 289.148,304.139 288.459,304.372 287.728 C 304.605 286.998,305.033 285.840,305.323 285.156 C 305.613 284.471,305.973 283.591,306.122 283.200 C 306.271 282.809,306.561 282.089,306.765 281.600 C 306.969 281.111,307.225 280.431,307.334 280.089 C 307.584 279.306,313.627 279.150,314.208 279.911 M336.783 279.850 C 337.232 280.060,338.104 280.900,338.721 281.716 C 340.496 284.068,345.546 290.545,346.668 291.911 C 347.231 292.596,348.373 294.036,349.206 295.111 C 350.039 296.187,350.889 297.260,351.094 297.495 C 351.299 297.731,352.267 298.974,353.244 300.257 L 355.022 302.590 355.200 291.117 L 355.378 279.644 358.044 279.644 L 360.711 279.644 360.711 296.533 L 360.711 313.422 358.466 313.418 C 355.883 313.413,355.189 312.788,350.044 305.836 C 348.866 304.243,342.977 296.724,342.758 296.533 C 342.647 296.436,342.080 295.701,341.500 294.900 C 340.228 293.146,338.226 290.844,337.971 290.844 C 337.870 290.844,337.746 295.924,337.694 302.133 L 337.600 313.422 334.933 313.422 L 332.267 313.422 332.174 296.889 C 332.123 287.796,332.158 280.156,332.252 279.911 C 332.464 279.357,335.641 279.314,336.783 279.850 M122.841 284.859 C 122.732 285.143,122.688 287.285,122.744 289.621 L 122.844 293.867 126.661 293.968 C 130.505 294.069,131.330 293.865,132.838 292.436 C 134.665 290.706,134.032 286.506,131.775 285.383 C 129.969 284.483,123.139 284.083,122.841 284.859 M272.948 284.681 C 272.818 284.812,272.711 286.972,272.711 289.481 L 272.711 294.044 276.635 294.044 C 282.264 294.044,283.553 293.179,283.555 289.398 C 283.556 286.509,283.015 285.748,280.410 284.974 C 278.620 284.443,273.392 284.238,272.948 284.681 M238.603 285.214 C 228.957 287.985,229.077 305.181,238.762 307.870 C 244.412 309.438,249.994 306.746,251.862 301.552 C 252.638 299.394,252.606 292.286,251.817 291.497 C 251.575 291.255,251.378 290.787,251.378 290.456 C 251.378 286.995,243.565 283.789,238.603 285.214 M94.387 287.207 C 94.246 287.847,93.991 288.456,93.821 288.562 C 93.650 288.667,93.511 289.042,93.511 289.396 C 93.511 289.749,93.175 290.900,92.764 291.953 C 92.353 293.005,91.777 294.507,91.483 295.289 C 91.190 296.071,90.806 296.989,90.630 297.329 C 90.455 297.668,90.311 298.259,90.311 298.641 C 90.311 299.023,90.149 299.436,89.950 299.559 C 88.960 300.171,90.433 300.444,94.717 300.444 C 100.331 300.444,100.051 300.628,98.948 297.668 C 98.460 296.359,97.498 293.769,96.809 291.911 C 96.120 290.053,95.428 288.213,95.271 287.822 C 95.114 287.431,94.909 286.871,94.815 286.578 C 94.715 286.265,94.538 286.526,94.387 287.207 M310.419 287.556 C 310.171 288.093,309.682 289.413,309.333 290.489 C 308.650 292.594,307.685 295.209,307.169 296.356 C 305.300 300.510,305.238 300.444,311.021 300.444 L 315.790 300.444 315.554 299.369 C 315.424 298.778,314.675 296.658,313.889 294.658 C 313.104 292.658,312.143 290.022,311.753 288.800 C 310.933 286.227,311.002 286.291,310.419 287.556 M123.111 298.878 C 122.789 299.026,122.667 300.345,122.667 303.674 L 122.667 308.267 127.225 308.267 L 131.783 308.267 133.269 306.995 C 135.744 304.877,135.359 301.002,132.530 299.544 C 131.369 298.946,124.088 298.431,123.111 298.878 M273.156 298.878 C 272.833 299.026,272.711 300.345,272.711 303.674 L 272.711 308.267 277.067 308.265 C 280.759 308.264,281.595 308.158,282.561 307.570 C 285.613 305.709,285.616 301.081,282.565 299.503 C 281.432 298.917,274.131 298.432,273.156 298.878 " stroke="none" fill="#f3f3f3" fill-rule="evenodd"></path></g></svg>